<svg xmlns="http://www.w3.org/2000/svg" viewBox="0 0 435.1 140.66"><defs><style>.cls-1,.cls-3{fill:#fff;}.cls-2{fill:none;}.cls-2,.cls-3{stroke:#fff;stroke-linecap:round;stroke-linejoin:round;stroke-width:2px;}</style></defs><g id="Ebene_2" data-name="Ebene 2"><g id="Layer_1" data-name="Layer 1"><path class="cls-1" d="M26.35,9.41q2.17-2.55,3.09-2.55a3,3,0,0,1,1.81.68,6.73,6.73,0,0,0,5.27.34,18.17,18.17,0,0,1,2.36-.34,3.39,3.39,0,0,1,2.64,1.11,24.36,24.36,0,0,1,2.63,4Q45.43,15,49.24,21,67.78,50.15,68.68,54.23a3.36,3.36,0,0,0,.09.59,4,4,0,0,1,.1.6q0,2.2-8.18,14.6-20.36,30-22.9,30h-.18a10.27,10.27,0,0,0-4.18-.5h-.36q-1.45,0-3.82-2.38T19.81,86Q2.17,64.08.73,60.34a2.33,2.33,0,0,1,.54-2.55c.73-.67.73-1.18,0-1.52a2.18,2.18,0,0,1-1.27-2q0-2.71,10.63-20.8T26.35,9.41ZM40.88,33.69Q34.7,23,34.16,23q-.73,0-7.63,11.38-12,20.88-12,23.08a1.19,1.19,0,0,0,.18.51q1.63,2.55,10.54,13t9.45,10.44q1.08,0,10.17-13.07l9.45-13.24-3.82-5.6Q45.43,41.67,40.88,33.69Z"/><path class="cls-1" d="M89.4,9.74Q93,7.33,94.28,7.34q2.34,0,19.79,16.52T131.5,42.52c0,.58-1,1.29-3.08,2.13s-3.06,1.46-3.07,1.84.76,1.75,2.3,3.79,2.3,3.26,2.3,3.64c0,.2-2.21,1.81-6.63,4.84s-6.62,4.64-6.62,4.83q0,1.74,15.2,20.88,5.7,7.31,5.68,8,0,.3-4.74,4.57-4.11,3.27-5,3.26a1.36,1.36,0,0,1-.94-.3q-2.31-1.77-15.53-20-6.3-8.46-6.45-8.47-.94,0-9.3,6.1l-2.68,2q-.2,3.18-.59,9.47c-.26,4.19-.46,7.35-.59,9.46l-6.56-.22q-6.55-.37-7-.82-1.08-1-.4-55,.17-13.73.57-20.09l.74-9.68,3.45-.39A18.9,18.9,0,0,0,89.4,9.74Zm26.13,34.75q-1.84-2.34-12-12L93,22.65l-.25,19.67q-.24,19.23.85,19.24.78,0,10.32-6.23t11.27-7.52l2-1.13Z"/><path class="cls-1" d="M156.53,9.28c2.16-1.57,3.56-2.36,4.18-2.36q1.86,0,17.81,15.94t17,18.91c.31.94-.16,1.73-1.39,2.36a13.9,13.9,0,0,0-3.1,2.19q-.93.63-.93,1.26t2,2.67c1.76,1.78,2.43,3,2,3.77q-.78,1.56-16.11,13.18-3.87,3-7.9,6c-2.68,2-4.85,3.75-6.5,5.11l-2.48,1.88q-1.08.94-1.08,9.73t-.62,9.58c-.52.52-2,.78-4.34.78a9.93,9.93,0,0,1-1.08-.08c-.52,0-.93-.08-1.24-.08l-6.19-.47-.47-2.51q-.32-2.19-.31-26.05V50.56q.32-33.43,1.24-36.73a3.18,3.18,0,0,1,3.1-2H151A11.85,11.85,0,0,0,156.53,9.28ZM171.7,34.87q-11-11.77-11.61-11.78-.78,0-.78,18.21,0,20.57.78,21h.15q1.39,0,6.82-4.39c.31-.21,1.8-1.15,4.49-2.83s5.08-3.27,7.2-4.78,3.17-2.59,3.17-3.22Q181.92,45.85,171.7,34.87Z"/><path class="cls-1" d="M206.58,12.85l.48-4.79,4.93.17,5.08.36.64,21.51.95,21.69q.48.52,4.3-1.42c3-1.19,4.82-1.78,5.56-1.78a1.9,1.9,0,0,1,1.83,1.06,30,30,0,0,1,1.51,4.27,20.73,20.73,0,0,1,.95,5.33,1.48,1.48,0,0,1-.16.89c-.42.48-2.86,1.78-7.31,3.92l-6.68,3.19-.16,16q-.31,16-.47,16.18a37.39,37.39,0,0,1-5.57.54l-5.24.17-.48-11.91q-.65-11.37-.64-44.09Q206.1,17.13,206.58,12.85Zm31,.54.64-3.38h10.17l.48,21.16Q250,80.41,250,91.79c0,2.73,0,4.65-.15,5.78a8,8,0,0,1-.32,2,1.21,1.21,0,0,1-.64.45,7.6,7.6,0,0,1-2.54.35,31.47,31.47,0,0,1-3.5-.35l-4.45-.72-.48-17.77q-.63-19.2-.64-48.18Q237.26,15.17,237.58,13.39Z"/><path class="cls-1" d="M291.42,10.41Q294.6,7,295.11,7q1.17,0,4.43,3.45t3.27,4.7q0,1.43-5.53,8.87-8.7,11.36-15.74,21.73t-7,11.61q0,1.6,14.74,17.56,14.4,16,14.4,17.2t-3.27,4.7c-2.17,2.31-3.71,3.46-4.6,3.46q-1.68,0-14.57-14.54T263.63,64q-2-3.18-2-4.07a1.74,1.74,0,0,1,.5-1.25,2.24,2.24,0,0,0-.34-3,3.92,3.92,0,0,1-1.34-2.31q0-1.41,12.9-19.33T291.42,10.41Zm-6.19,36.88q1.17,0,8,4.88t6.87,5.59c0,1-.95,2.92-2.85,5.94s-3.12,4.52-3.68,4.52c-1,0-3.55-1.65-7.62-5s-6.11-5.38-6.11-6.21q0-.88,2.34-5.32C283.78,48.77,284.78,47.29,285.23,47.29Z"/><path class="cls-1" d="M415.3,14q6.81-6.81,7.79-6.82c.65,0,1.43,1.54,2.35,4.6s1.49,4.66,1.71,4.78a1,1,0,0,1,.65.85q0,1.18-7,9.2c-5,5.8-7.63,9-7.95,9.72,0,.11,0,.17-.09.17s-.08.06-.08.17q0,1.37,11,12.27,10.88,10.39,10.87,11.93a3.22,3.22,0,0,1-.32.85,3.67,3.67,0,0,0-1.14,2.56,4.12,4.12,0,0,0,1.3,2.89,2.05,2.05,0,0,1,.65,1.37q0,1.53-6.65,7.84Q420,84.51,412.7,92.18l-8.11,8.35-3.73-4.26c-2.28-2.61-3.57-4.37-3.9-5.29q0-.84,12.34-13.46l12.17-12.61L418.71,62q-5-4.77-13-12.61-10.23-10-10.23-10.57,0-1.19,7.3-10.39A187.29,187.29,0,0,1,415.3,14Z"/><path class="cls-1" d="M80.9,116.65c.29-.4.49-.61.61-.61a.55.55,0,0,1,.36.17,1.17,1.17,0,0,0,1,.08,2.4,2.4,0,0,1,.47-.08.61.61,0,0,1,.53.26,6.08,6.08,0,0,1,.52,1c.17.38.51,1,1,2q3.69,7,3.87,8s0,.08,0,.15a1.15,1.15,0,0,1,0,.14,14.91,14.91,0,0,1-1.63,3.51q-4,7.22-4.56,7.22h0a1.79,1.79,0,0,0-.83-.13h-.07c-.2,0-.45-.19-.76-.57s-.94-1.27-1.89-2.69a51.29,51.29,0,0,1-3.8-6.16.67.67,0,0,1,.11-.61c.15-.16.15-.29,0-.37a.54.54,0,0,1-.25-.49,24.84,24.84,0,0,1,2.12-5A48.35,48.35,0,0,1,80.9,116.65Zm2.89,5.84a15.48,15.48,0,0,0-1.34-2.57,15.71,15.71,0,0,0-1.52,2.73,36.68,36.68,0,0,0-2.39,5.55.41.41,0,0,0,0,.12q.33.62,2.1,3.12A22.45,22.45,0,0,0,82.56,134a15,15,0,0,0,2-3.14l1.88-3.18-.76-1.35C85,125,84.4,123.77,83.79,122.49Z"/><path class="cls-1" d="M99.94,115.79a.71.71,0,0,1,.54-.16,6.3,6.3,0,0,1,1.67.33l.43.12.18,10.6c0,2.13.08,4.83.08,8.12,0,1.77,0,2.68,0,2.74s-.63.28-1.67.28c-.82,0-1.23-.07-1.23-.2s-.09-.21-.29-.21-.37-.41-.68-1.22q-.69-2-2.72-7.06T94.08,124a7.45,7.45,0,0,0-.11,2.12q0,1.92,0,3.27c0,2.06.08,3.55.08,4.44,0,1.25,0,2.18-.08,2.78l-.1,1.59H91.18L91,135.54c-.08-1.69-.11-5.33-.11-10.94s0-8.48.11-8.64.53-.21,1.37-.21a2.66,2.66,0,0,1,1.67.33,31.48,31.48,0,0,1,1.55,3.4q1.35,3.17,2.59,6.23a29.57,29.57,0,0,0,1.32,3,51.63,51.63,0,0,0,.22-6.36Q99.84,116,99.94,115.79Z"/><path class="cls-1" d="M125.33,116.48l.11-1.2,1.12,0,1.16.09.14,5.36.22,5.4c.07.09.4,0,1-.35a4.83,4.83,0,0,1,1.26-.45.42.42,0,0,1,.42.27,7.84,7.84,0,0,1,.34,1.06,5.47,5.47,0,0,1,.22,1.33.48.48,0,0,1,0,.22,10,10,0,0,1-1.67,1l-1.52.8,0,4c0,2.66-.08,4-.1,4a7.55,7.55,0,0,1-1.27.14l-1.2,0-.1-3q-.15-2.83-.15-11Q125.22,117.55,125.33,116.48Zm7.06.13.14-.84h2.32L135,121q.25,12.27.25,15.11c0,.68,0,1.16,0,1.44a1.71,1.71,0,0,1-.07.49.27.27,0,0,1-.14.11,1.57,1.57,0,0,1-.58.09,6.25,6.25,0,0,1-.8-.09l-1-.18-.11-4.43q-.15-4.79-.14-12C132.32,118.56,132.34,116.91,132.39,116.61Z"/><path class="cls-1" d="M141.33,115.71c.29-.43.5-.65.62-.65a.55.55,0,0,1,.36.17,1.07,1.07,0,0,0,1.05.09,2.62,2.62,0,0,1,.47-.09.62.62,0,0,1,.52.28,6.3,6.3,0,0,1,.53,1c.17.41.5,1.12,1,2.13,2.46,5,3.75,7.8,3.87,8.49,0,0,0,.08,0,.15s0,.12,0,.15a15.62,15.62,0,0,1-1.63,3.73q-4,7.66-4.56,7.67h0a1.57,1.57,0,0,0-.83-.13h-.07c-.19,0-.45-.2-.76-.61s-.94-1.36-1.88-2.86a54.52,54.52,0,0,1-3.8-6.54.72.72,0,0,1,.11-.65q.21-.25,0-.39a.6.6,0,0,1-.26-.52,27.48,27.48,0,0,1,2.12-5.31A51.24,51.24,0,0,1,141.33,115.71Zm2.9,6.2a18.38,18.38,0,0,0-1.34-2.73,15.07,15.07,0,0,0-1.52,2.9A38.79,38.79,0,0,0,139,128a.45.45,0,0,0,0,.13c.22.44.92,1.54,2.1,3.32a22.75,22.75,0,0,0,1.89,2.66,16.12,16.12,0,0,0,2-3.33l1.88-3.38-.76-1.43C145.47,124.61,144.83,123.26,144.23,121.91Z"/><path class="cls-1" d="M151.85,116.25a2.16,2.16,0,0,1,1-.12h.51l1.19,0,.11,1.67c.1,1.33.25,4.42.47,9.26q.33,7.59.36,7.63h0l2.42-.61a19.31,19.31,0,0,1,3.33-.7h.94v3.1l-3.76,1-1.85.49-1.53.41-.56.12c-.15,0-.29-.17-.44-.53a.71.71,0,0,0-.72-.53c-.56,0-.88-.11-1-.35a10.34,10.34,0,0,1-.15-2.46q-.14-5.83-.18-6.41-.36-7.87-.36-10.32Q151.67,116.37,151.85,116.25Z"/><path class="cls-1" d="M164.26,116.25a2.1,2.1,0,0,1,1-.12h.51l1.2,0,.1,1.67q.15,2,.47,9.26.33,7.59.37,7.63h0l2.43-.61a19.31,19.31,0,0,1,3.33-.7h.94v3.1l-3.77,1L169,138l-1.54.41a4.79,4.79,0,0,1-.56.12c-.15,0-.29-.17-.44-.53a.71.71,0,0,0-.72-.53c-.55,0-.88-.11-1-.35a11.29,11.29,0,0,1-.14-2.46q-.15-5.83-.18-6.41-.36-7.87-.36-10.32Q164.08,116.37,164.26,116.25Z"/><path class="cls-1" d="M180.8,115.71c.29-.43.5-.65.62-.65a.55.55,0,0,1,.36.17,1.07,1.07,0,0,0,1.05.09,2.62,2.62,0,0,1,.47-.09.62.62,0,0,1,.52.28,6.3,6.3,0,0,1,.53,1c.17.41.5,1.12,1,2.13,2.46,5,3.75,7.8,3.87,8.49,0,0,0,.08,0,.15s0,.12,0,.15a15.62,15.62,0,0,1-1.63,3.73q-4,7.66-4.56,7.67h0a1.57,1.57,0,0,0-.83-.13h-.07c-.19,0-.45-.2-.76-.61s-.94-1.36-1.88-2.86a54.52,54.52,0,0,1-3.8-6.54.72.72,0,0,1,.11-.65q.21-.25,0-.39a.6.6,0,0,1-.26-.52,27.48,27.48,0,0,1,2.12-5.31A52.84,52.84,0,0,1,180.8,115.71Zm2.9,6.2a18.38,18.38,0,0,0-1.34-2.73,15.07,15.07,0,0,0-1.52,2.9,38.79,38.79,0,0,0-2.39,5.89.45.45,0,0,0,0,.13c.22.44.92,1.54,2.1,3.32a22.75,22.75,0,0,0,1.89,2.66,16.12,16.12,0,0,0,2-3.33l1.88-3.38-.76-1.43C184.94,124.61,184.3,123.26,183.7,121.91Z"/><path class="cls-1" d="M208.7,115.47a0,0,0,0,1,.05,0l.16,0,.22.06q.1,0,.78.21c.45.11.87.22,1.28.35a6.14,6.14,0,0,1,.77.26.58.58,0,0,1,0,.25,10.29,10.29,0,0,1-.22,1.75q-.26,1.47-.36,2.49,0,.29-1.41,7.91t-1.41,7.87a7,7,0,0,1-.4,1.43c-.14.36-.34.53-.58.53a5,5,0,0,1-.58-.08,3.37,3.37,0,0,0-.58,0,.81.81,0,0,0-.68.49q-.41.57-.66.45a16.17,16.17,0,0,1-2-3.31,21.37,21.37,0,0,0-1.84-3.14c-.19,0-.75,1.43-1.67,4.29-.31,1-.48,1.52-.5,1.55a10.4,10.4,0,0,1-1.45.49,13.07,13.07,0,0,1-1.52.4c-.15,0-.4-.62-.76-1.85s-1.21-4.37-2.53-9.41q-3-11.18-3-11.66a.17.17,0,0,1,0-.12,10.73,10.73,0,0,1,1.45-.51,9.13,9.13,0,0,1,1.56-.43c.34,0,.76,1.09,1.26,3.26q.81,3.56,3.26,12.77c.12.43.26.5.4.2a3.06,3.06,0,0,0,.15-.41,12.17,12.17,0,0,1,.86-2.4c.49-1.09.79-1.63.91-1.63a2.37,2.37,0,0,1,.76.28.9.9,0,0,0,.51.21,1.19,1.19,0,0,0,.65-.33l.54-.45.36.49s.27.47.74,1.33,1,1.7,1.43,2.53a7,7,0,0,0,.8,1.24,18.73,18.73,0,0,0,.61-3.22q.66-3.8,1.45-8l1-5.46a2.53,2.53,0,0,1,0-.27.85.85,0,0,1,.06-.22Z"/><path class="cls-1" d="M227.23,118.75v-3.1h5.1c3.52,0,5.6,0,6.22.12l1.13.17.14,1.26a6.24,6.24,0,0,1,0,.74,1.57,1.57,0,0,1-.08.69,8.61,8.61,0,0,1-2.46.33l-2.28.12V128c0,6,0,9.19-.11,9.55l-.1.69-1.31-.12a4.89,4.89,0,0,1-1.41-.25s0-1.78,0-5.26v-4.2l0-9.34h-1.84a13,13,0,0,1-2.47-.16Z"/><path class="cls-1" d="M246.26,116a2.8,2.8,0,0,1,1.12-.62c.37,0,1.91,1.38,4.64,4.13s4.09,4.31,4.09,4.67c0,.15-.24.33-.71.55s-.7.38-.7.48a2.92,2.92,0,0,0,.54.95,3.33,3.33,0,0,1,.54.92,14.28,14.28,0,0,1-1.52,1.25,13.66,13.66,0,0,0-1.52,1.24c0,.3,1.2,2.05,3.58,5.25a11.36,11.36,0,0,1,1.34,2,9.32,9.32,0,0,1-1.08,1.18c-.63.56-1,.84-1.16.84a.29.29,0,0,1-.22-.07,44.94,44.94,0,0,1-3.65-5c-1-1.41-1.5-2.12-1.52-2.12a10.76,10.76,0,0,0-2.14,1.57l-.61.52c0,.54-.06,1.34-.11,2.4s-.09,1.86-.11,2.4l-1.52,0a5.34,5.34,0,0,1-1.63-.19q-.25-.26-.25-13.93c0-2.33,0-4,.07-5.1l.14-2.46.8-.11A4.11,4.11,0,0,0,246.26,116Zm6.15,8.73q-.43-.58-2.82-3l-2.46-2.46v5c0,3.25.09,4.87.25,4.87a15.6,15.6,0,0,0,2.37-1.61c1.46-1.08,2.33-1.72,2.59-1.94l.47-.3Z"/><path class="cls-1" d="M266.65,116.75c.1-.3.22-.47.36-.53a4.52,4.52,0,0,1,1.2-.09h.47c.5,0,.76.07.76.22a1,1,0,0,1,0,.31c-.09.39,0,.58.18.58a.39.39,0,0,1,.37.23q.1.23,2,9.09t2.06,9.89c.1.9.15,1.37.15,1.43s-.45.24-1.34.36l-1.27.14-.18-.9q-3.08-14.61-3.22-14.88c-.05-.11-.08-.17-.11-.17a31.21,31.21,0,0,0-1.59,5.09l-1.08,3.93,1.95-.13,2-.18.15.67a9,9,0,0,1,.14,1.65v1l-1.73.22a11.68,11.68,0,0,1-1.6.14c-.24,0-.37,0-.39,0-.2-.12-.29-.5-.29-1.16,0-.86-.06-1.3-.18-1.3s-.52,1-1.05,3.09l-.91,3.39-1.05-.13c-1.13-.18-1.7-.36-1.7-.54s.75-3,2.24-8.44,2.56-9.14,3.19-11.17c.07-.21.14-.43.22-.65s.13-.45.2-.69S266.63,116.81,266.65,116.75Z"/><path class="cls-1" d="M282.28,116.79a6.23,6.23,0,0,1,1.19-1.36c.1,0,.41.32.92,1a4,4,0,0,1,.78,1.14,44.85,44.85,0,0,1-2.6,4.25q-.84,1.27-3.19,5.09l-.54,1,2.13,2.81q1.2,1.53,3.3,4.08a5,5,0,0,1,1.08,1.62,3.68,3.68,0,0,1-.83,1.23c-.48.56-.77.83-.87.83a.73.73,0,0,1-.36-.22A23.68,23.68,0,0,1,281,135.5c-1.25-1.6-2.25-3-3-4.1a16.37,16.37,0,0,0-1.49-2,.91.91,0,0,1-.18-1,1.41,1.41,0,0,0-.11-1.14,2,2,0,0,1-.14-.43,5.26,5.26,0,0,1,.79-1.63A94.5,94.5,0,0,1,282.28,116.79Z"/><path class="cls-1" d="M294,115.9c.46-.56.73-.84.8-.84s.49.29,1,.87a2.68,2.68,0,0,1,.7,1.17,7.87,7.87,0,0,1-1.19,2.22c-1.25,1.9-2.39,3.71-3.4,5.44a14.89,14.89,0,0,0-1.52,2.91c0,.27,1.06,1.73,3.18,4.4a30.65,30.65,0,0,1,3.11,4.3,2.69,2.69,0,0,1-.7,1.18c-.47.58-.8.86-1,.86s-1.29-1.21-3.14-3.64a48.92,48.92,0,0,1-3.8-5.46,3.23,3.23,0,0,1-.44-1,.49.49,0,0,1,.11-.31.63.63,0,0,0-.07-.75,1,1,0,0,1-.29-.58,35.61,35.61,0,0,1,2.78-4.84C291.94,118.82,293.25,116.85,294,115.9Zm-1.34,9.24a6.61,6.61,0,0,1,1.74,1.22c1,.81,1.48,1.28,1.48,1.4a4.36,4.36,0,0,1-.61,1.49c-.41.75-.68,1.13-.8,1.13s-.76-.42-1.64-1.25-1.32-1.34-1.32-1.55a5.34,5.34,0,0,1,.5-1.33C292.34,125.51,292.56,125.14,292.65,125.14Z"/><path class="cls-1" d="M304,117c1-1.16,1.59-1.74,1.74-1.74s.32.39.52,1.18a6.21,6.21,0,0,0,.38,1.22.25.25,0,0,1,.15.22,10.09,10.09,0,0,1-1.56,2.35,30.1,30.1,0,0,0-1.77,2.48s0,0,0,0,0,0,0,0a15,15,0,0,0,2.46,3.13c1.62,1.77,2.43,2.79,2.43,3a1.48,1.48,0,0,1-.07.22,1,1,0,0,0-.26.65,1.15,1.15,0,0,0,.29.74.56.56,0,0,1,.15.35c0,.26-.5.93-1.49,2q-1.87,2.09-3.51,4.05l-1.81,2.13-.83-1.09a6,6,0,0,1-.87-1.35,29.23,29.23,0,0,1,2.75-3.44l2.72-3.22-.62-.74c-.75-.82-1.71-1.89-2.89-3.23a27.93,27.93,0,0,1-2.28-2.7,12.88,12.88,0,0,1,1.62-2.65C302.33,119.16,303.26,117.93,304,117Z"/><path class="cls-2" d="M368,19.57c-.76,5.72-1.54,11.43-2.27,17.15-1,7.52-1.92,15-2.77,22.55-.73,6.54-1.55,13-3.55,19.36-.16.49-.34,1-.51,1.47"/><path class="cls-2" d="M344.23,19.81c.26,4.09.54,8.17.76,12.26q.78,15.06,1.51,30.14c.23,5.06.08,10.05.26,15.44,1.93-.32,4.83-1,6.57-.25.15.07.14-.94.2-1.47.44-3.75.84-7.51,1-11.27.57-10.29,1.05-20.58,1.53-30.88.22-4.65.35-9.31.52-14"/><path class="cls-2" d="M333.11,19.57c.85,7.27,1.65,14.54,2.54,21.81,1.14,9.23,2.27,18.47,3.57,27.69.51,3.62,1.48,7.19,2.23,10.78"/><path class="cls-2" d="M338.42,19.57c.42,4.66.82,9.31,1.27,14,.74,7.68,1.46,15.36,2.28,23,.78,7.28,1.67,14.54,2.52,21.81"/><path class="cls-2" d="M362.43,19.57c-.25,3.59-.43,7.19-.77,10.78-1,10.3-1.89,20.6-3.07,30.87-.65,5.67-1.8,11.28-2.73,16.92"/><path class="cls-2" d="M350.55,19.57c0,18-.24,36.19-.25,54.16v2.94"/><path class="cls-2" d="M356.36,102.64a8.07,8.07,0,0,1,3.36,5.59c0,.6,1.61.45,2.46.53,6.37.56,6.34-1,4.95-5.6a39.58,39.58,0,0,0-2.8-7.56c-1.46-2.68-3.26-5.42-6.68-6.51-.83-.26-1.32-1.44-2-2.12-3.81-3.58-10.13-3-12.17,1.86-.73,2.1,2.17,3.58,3.72,4"/><path class="cls-3" d="M382,14.33a30,30,0,0,1,3.17-7.76c.76-1.34,2-2.64.84-4.82-5.21,2.7-6.85,7.38-7.89,12.43v5.14c.08,2,0,3.94.28,5.88.41,3.44,1.1,6.86,1.46,10.3a126.9,126.9,0,0,1,1,13.48c0,10-1.08,19.89-5.34,29.12-1.54,3.33-4.1,6.22-6.2,9.31a.07.07,0,0,0,0,.09L374,96.18a0,0,0,0,0,.09,0,81.74,81.74,0,0,0,6.73-9.52,51,51,0,0,0,5.9-22c.17-3.51.58-7,.44-10.54a127.09,127.09,0,0,0-1.23-12.74c-.69-4.84-1.67-9.64-2.49-14.46-.46-2.69-.85-5.39-1.27-8.09Z"/><path class="cls-2" d="M346.76,77.65c-4.89,3.1-9.9,6-14.58,9.41-1.5,1.08-3,4.19-3.73,6a40.06,40.06,0,0,0-2,5.78"/><path class="cls-2" d="M335.34,99.46c0,.41-.67.79-.95,1.23a9.39,9.39,0,0,0-1.57,5.63c.08,1.89,1,2.63,2.82,2.7s3.71.16,5.56.24"/><path class="cls-3" d="M355.07,93l3.32,5.5c0,3.2-.93,4.39-3.27,4.47-3.2.13-6.19,0-9.37,0a2.76,2.76,0,0,1-2.8-1.74c-.5-.93-.15-1.9.28-3a24.51,24.51,0,0,0,2-5.73c3.46.49,6.75,1.52,9.24-.35a7.26,7.26,0,0,0,2-1.93"/><path class="cls-2" d="M334.63,109.26c-1.79,3.4-.29,6.48,1.06,9.54.17.38.94.63,1.47.73,1.87.33,5.17-1.18,6.07-2.67.59-1,1.22-2,2-3.3a2.2,2.2,0,0,1-.76-.39c-3.3-3.57-3.58-3.92-.85-8.21a8.05,8.05,0,0,0,1.09-1.83"/><path class="cls-2" d="M364,119.31c.16.73.71,1.65.44,2.17-1.31,2.52-2.15,5.3-5.2,6.74-1.7.8-2.52,3-4.59,3.6-3.16,1-6.19,1.58-9.13-.71a51.89,51.89,0,0,0-4.77-2.75c-3.15-1.94-4-4.92-3.8-8.32"/><path class="cls-2" d="M366.47,109a7.75,7.75,0,0,1,.53,5.4c-.89,4.19-4,6-7.81,4.07-1.08-.53-1.41-2.33-2.35-3.31-1.6-1.66,0-2.42.78-3.47s1.36-2,2-2.93"/><path class="cls-3" d="M326.71,98c-.55-.59-5.73-7.57-6.29-8.45-4.67-7.36-6.24-16.78-7.27-25.14-.95-7.74-.19-15.55,1.16-23.27,1.4-8.08,2.61-15.19,4-23.28l-.46-4.41c.06-3.75-2.12-6.68-3.77-9.81-.51-1-1-2.17,1.06-2.68,4,3.12,6.8,7,6.75,12.49v4.32c-.78,4.86-1.21,17-1.78,21.9a108.81,108.81,0,0,0-.74,21.57c.42,5.06,2.49,9.63,4.54,14.21,1.77,4,4.13,8.13,7.42,11.15Z"/><path class="cls-2" d="M353.33,77.4c5.09,1.73,8.76,5.56,13.14,8.33a9.31,9.31,0,0,1,1.43,1.11c2.14,2,2,3.49,4.14,6.24.34.43.71,1.11,1.26,2a14.33,14.33,0,0,1,.66,2,8.2,8.2,0,0,1,.31,2.14,43.57,43.57,0,0,0,.38,5.62c.81,5.2-.56,9.87-2.64,14.47q-2.1,4.61-4.54,9.07c-1.91,3.5-9.62,9-13.9,10.78a9.77,9.77,0,0,1-6.23,0L339.18,135c-3.47-2.28-5.34-3.5-7.07-7.81-1.21-3-2.18-6.13-3.58-9.05a27.59,27.59,0,0,1-2.42-7.73,39.42,39.42,0,0,1,.38-11.89"/><path class="cls-2" d="M368,19.25a46.8,46.8,0,0,1-7.26-.41,5.23,5.23,0,0,0-.56,0c-3.37.16-6.74.43-10.11.46-4.05,0-8.09-.14-12.13-.22l-10.62-.25h-3.24l-2-.11a41.23,41.23,0,0,1-7.61-1.11,1.11,1.11,0,0,1,.31-2.17c.2,0,1.92-.26,2.14-.27,4.29-.27,8.59-.48,12.89-.76.93-.06,3.75.07,5.35,0l28.72,0c2.61.17,5.27-.05,7.88,0,3.54.08,7.13-.31,10.59.17a33.38,33.38,0,0,1,4.46.74A1.06,1.06,0,0,1,387.4,17a4.57,4.57,0,0,1-3.76,1.88c-1.73.14-5.37-.14-6.3,0Z"/><path class="cls-2" d="M355.66,113.35c-3.54.09-6.86.13-10.4.21"/><path class="cls-2" d="M354.34,124c-.59-.08-1.18-.14-1.77-.25-4.74-.89-7.84,1.15-9.85,5.15"/><path class="cls-2" d="M365.42,98.68c-1.86.08-4.66-.07-6.51,0"/><path class="cls-2" d="M342.72,117.48c1.34,1.59,2.44,4.77,3.79,6.36"/><path class="cls-2" d="M357.66,117.48c-1.25,1.33-2.07,5.16-3.32,6.48a6.72,6.72,0,0,1,3.54,4.9"/><path class="cls-3" d="M335.34,99.46l1.25-3.77a16.82,16.82,0,0,1,1.89-3.21A15.89,15.89,0,0,1,341,90.11l2-1.34,1.21,4.91-2,6.27-6.57-.49"/><path class="cls-3" d="M356.94,89.51l2.48,1.29a11.59,11.59,0,0,1,2.11,1.94,16.22,16.22,0,0,1,1.56,2.62L364.74,98l-4,.63-6.4-4.31c.11-2.26,2.49-2.28,2.6-4.54"/></g></g></svg>